<svg xmlns="http://www.w3.org/2000/svg" viewBox="0 0 583.15 428.52"><defs><style>.cls-1{fill:#d99c26;opacity:0.05;}</style></defs><g id="Layer_2" data-name="Layer 2"><g id="Layer_10" data-name="Layer 10"><path class="cls-1" d="M.06,143.12c22.36,7.86,44.56,15.76,68.67,17.33s46.16-3.39,66.28-16.75c28.41-18.85,52.94-42.35,75.47-67.58,48.46-54.26,121.22-84,194-74.29,58.58,7.83,115.08,40.51,145.56,91.45,31.69,53,40.31,119.83,27.09,179.76-11,49.75-40.94,97.43-85.54,123.53C441.49,425.9,382.3,434.65,325.32,424.4,261.65,413,200.18,379.82,151.18,338.3A620.26,620.26,0,0,1,3.41,154C1.61,150.61-.38,147.24.06,143.12Z"/></g></g></svg>