<svg xmlns="http://www.w3.org/2000/svg" viewBox="0 0 532.02 462.6"><defs><style>.cls-1{fill:#fff;opacity:0.05;}</style></defs><g id="Layer_2" data-name="Layer 2"><g id="Layer_10" data-name="Layer 10"><path class="cls-1" d="M532,33.25c-21.37,10.25-42.65,20.37-60.81,36.3s-30.24,35-35,58.71c-6.75,33.43-7.48,67.38-5.57,101.15,4.1,72.64-26.3,145.14-84.68,189.75-47,35.88-110,52.74-167.6,38.26-59.85-15-113.23-56.23-146.26-107.95C4.65,306.53-7.88,251.62,5.21,201.63,19.93,145.43,55.59,97.4,103.13,64.35c53.12-36.93,120-57,184-62.26A620.49,620.49,0,0,1,522,27.91C525.63,29.05,529.42,30,532,33.25Z"/></g></g></svg>