<svg xmlns="http://www.w3.org/2000/svg" viewBox="0 0 465.28 504.33"><defs><style>.cls-1{fill:#231f20;opacity:0.05;}</style></defs><g id="Layer_2" data-name="Layer 2"><g id="Layer_10" data-name="Layer 10"><path class="cls-1" d="M465.28,3c-18,15.43-35.93,30.71-49.34,50.8S395.8,95.52,397.3,119.62c2.13,34,10.21,67,20.8,99.15,22.76,69.1,12.16,147-32.69,205.2-36.08,46.81-92.62,79.41-152,80.33-61.71,1-123.93-25-169.22-66.42C26.61,403.5.3,353.71,0,302c-.33-58.11,21.69-113.73,59.06-158C100.81,94.66,160.24,58,220.69,36.32A620.34,620.34,0,0,1,454.17.49C458,.64,461.94.6,465.28,3Z"/></g></g></svg>