<svg xmlns="http://www.w3.org/2000/svg" viewBox="0 0 532.02 462.6"><defs><style>.cls-1{fill:#d99c26;opacity:0.05;}</style></defs><g id="Layer_2" data-name="Layer 2"><g id="Layer_10" data-name="Layer 10"><path class="cls-1" d="M0,429.35C21.37,419.1,42.65,409,60.81,393.05s30.24-35,35-58.71c6.76-33.43,7.49-67.38,5.58-101.15-4.1-72.64,26.3-145.14,84.68-189.75,47-35.88,110-52.73,167.6-38.26,59.85,15,113.23,56.23,146.26,108C527.37,156.07,539.9,211,526.81,261c-14.72,56.2-50.38,104.23-97.93,137.29-53.11,36.92-120,56.95-184,62.25a620.49,620.49,0,0,1-234.8-25.82C6.39,433.55,2.6,432.58,0,429.35Z"/></g></g></svg>