<svg xmlns="http://www.w3.org/2000/svg" viewBox="0 0 583.15 428.52"><defs><style>.cls-1{fill:#013c67;opacity:0.05;}</style></defs><g id="Layer_2" data-name="Layer 2"><g id="Layer_10" data-name="Layer 10"><path class="cls-1" d="M583.08,285.39c-22.35-7.86-44.56-15.75-68.66-17.32s-46.16,3.39-66.28,16.74c-28.42,18.86-52.94,42.35-75.47,67.59-48.46,54.26-121.23,84-194,74.29C120,418.85,63.53,386.18,33.05,335.23,1.37,282.28-7.25,215.4,6,155.48,16.94,105.73,46.9,58,91.51,32,141.66,2.61,200.84-6.13,257.83,4.12,321.5,15.56,383,48.7,432,90.22A620.22,620.22,0,0,1,579.74,274.49C581.53,277.91,583.53,281.28,583.08,285.39Z"/></g></g></svg>