<svg xmlns="http://www.w3.org/2000/svg" viewBox="0 0 441.07 574.43"><defs><style>.cls-1{fill:#013c67;opacity:0.05;}</style></defs><g id="Layer_2" data-name="Layer 2"><g id="Layer_10" data-name="Layer 10"><path class="cls-1" d="M100.34,0c4.37,23.29,8.63,46.47,19.32,68.13s26,38.28,47.65,49c30.54,15.18,63.14,24.67,96.26,31.57,71.22,14.83,133.38,63,161.36,130.9,22.51,54.65,22.47,119.92-6.41,171.79-30,53.92-83.63,94.82-142.14,113.34C227.81,580.13,171.53,578,126.64,552.44,76.15,523.68,39,476.79,19.37,422.32c-21.92-60.87-24-130.66-12.51-193.86A620.36,620.36,0,0,1,92.57,8.35C94.63,5.09,96.55,1.68,100.34,0Z"/></g></g></svg>