<svg xmlns="http://www.w3.org/2000/svg" viewBox="0 0 462.6 532.02"><defs><style>.cls-1{fill:#013c67;opacity:0.05;}</style></defs><g id="Layer_2" data-name="Layer 2"><g id="Layer_10" data-name="Layer 10"><path class="cls-1" d="M33.25,0C43.5,21.37,53.62,42.65,69.55,60.81s35,30.24,58.71,35c33.43,6.76,67.38,7.49,101.15,5.58,72.64-4.1,145.14,26.3,189.75,84.68,35.88,47,52.74,110,38.26,167.6-15,59.85-56.23,113.23-107.95,146.26-42.94,27.42-97.85,39.95-147.84,26.86-56.2-14.72-104.23-50.38-137.28-97.93-36.93-53.11-57-120-62.26-184A620.49,620.49,0,0,1,27.91,10.07C29.05,6.39,30,2.6,33.25,0Z"/></g></g></svg>