<svg xmlns="http://www.w3.org/2000/svg" viewBox="0 0 237 56.69"><defs><style>.cls-1{fill:#fff;}</style></defs><g id="Layer_2" data-name="Layer 2"><g id="Layer_1-2" data-name="Layer 1"><path class="cls-1" d="M155.56,2a2.86,2.86,0,0,1,2.32,2.43v2.3L152.32,15l-5.55-8.33V4.38a2,2,0,0,1,.27-1A3.1,3.1,0,0,1,149.09,2V1.41H136.61V2a2.87,2.87,0,0,1,2.33,2.43V26.23a2.87,2.87,0,0,1-2.33,2.43v.54h12.48v-.54a2.86,2.86,0,0,1-2.32-2.43v-9.3l5.55,8.33,5.56-8.33v9.3a2.86,2.86,0,0,1-2.32,2.43v.54H168v-.54a3,3,0,0,1-1.76-1,2.14,2.14,0,0,1-.57-1.39V4.38a2.37,2.37,0,0,1,.93-1.74A2.64,2.64,0,0,1,168,2V1.41H155.56ZM22.28,2a2.2,2.2,0,0,1,1,.39,2.58,2.58,0,0,1,1.31,2V9.74a7.81,7.81,0,0,0-.9.13c-2.7.49-6.47,2.27-10.64,4V4.25A2.24,2.24,0,0,1,14,2.41l.09-.08.28-.18.2-.1a3.68,3.68,0,0,1,.84-.31,7.93,7.93,0,0,0-1.24-.57L13.74,1A8.38,8.38,0,0,0,10.56.64l-.11,0a6.25,6.25,0,0,0-1.79.44C5.2,2.5,2.89,2,1.54,1.25A4.23,4.23,0,0,1,1.12,1,4.11,4.11,0,0,1,0,0,7.15,7.15,0,0,0,1.86,5.24,5.61,5.61,0,0,0,4.57,6.81V30.89A2,2,0,0,1,4.21,32a3.18,3.18,0,0,1-1,.94,2.16,2.16,0,0,1-1,.39v.54H15.39v-.54a1.92,1.92,0,0,1-.8-.27,2.69,2.69,0,0,1-1.53-2.16V22.65c2.26-.75,4.58-2,6.94-2.92l.94-.34c.42-.15.84-.27,1.26-.38l.36-.09a12,12,0,0,1,2-.31V30.89a2.6,2.6,0,0,1-1.31,2,2.2,2.2,0,0,1-1,.39v.54H35.42v-.54a2.2,2.2,0,0,1-1-.39,2.6,2.6,0,0,1-1.31-2V4.38a2.28,2.28,0,0,1,.81-1.63A2.81,2.81,0,0,1,35.42,2V1.42H22.28ZM87.91,2a2.86,2.86,0,0,1,2.32,2.43v13.4L79.13,4.33A2.87,2.87,0,0,1,81.44,2V1.41H69V2a2.86,2.86,0,0,1,2.33,2.43V26.23A2.86,2.86,0,0,1,69,28.66v.54H81.44v-.54a2.86,2.86,0,0,1-2.32-2.43V13.66l11,13.26a3.05,3.05,0,0,1-2.17,1.74v.54h12.48v-.54a2.87,2.87,0,0,1-2.33-2.43V4.38A2.87,2.87,0,0,1,100.39,2V1.41H87.91Zm44.65-.54c-9,0-10.65,6.06-10.65,6.06-.09,1,.24,1.8.85,1.94,1.16.27,1.32,2.52,1.32,2.52v6.61c0,2.28-3,4.58-5.58,4.68-2.55-.1-5.58-2.4-5.58-4.68V11.93s.17-2.25,1.32-2.52c.61-.14.94-.92.85-1.94,0,0-1.61-6.06-10.65-6.06-2.59,0-1.55.58-.88,1.11.86.69,3,3.42,2.85,5,0,0-.46-.73-.87-.77s-.43,1-.43,1v9.9c0,4.37.42,7.13,1.92,8.41,1,.86,4.76,3.61,5.51,4.77s5.12,1.06,6,1.05,5.29,0,6-1.05S129,26.86,130,26c1.5-1.28,1.92-4,1.92-8.41V7.69s0-1-.43-1-.87.77-.87.77c-.13-1.57,2-4.3,2.85-5C134.11,2,135.15,1.41,132.56,1.41ZM237,0a5.67,5.67,0,0,1-4.71,2,10.37,10.37,0,0,1-1.18-.11A10.48,10.48,0,0,1,230,1.64a14.35,14.35,0,0,1-1.65-.54,6.67,6.67,0,0,0-3-.46c-.25,0-.5,0-.73.08l-.75.16a7.84,7.84,0,0,0-1.12.35l-.34.13c-.47.21-.76.38-.76.38s2.33.46,2.33,2.51V17.3L212.4,5.14V4.38A2.14,2.14,0,0,1,213,3a2.93,2.93,0,0,1,1.75-1V1.42H201.58V2a1,1,0,0,1,.28,0,3.35,3.35,0,0,1,1.77,1.4,2,2,0,0,1,.27,1V30.89a2.85,2.85,0,0,1-2.32,2.43v.54h13.14v-.54a3.06,3.06,0,0,1-2-1.33,1.93,1.93,0,0,1-.36-1.1V16.31l11.54,12.16v2.42a2.86,2.86,0,0,1-2.33,2.43v.54h13.15v-.54a3,3,0,0,1-2-1.33,2,2,0,0,1-.36-1.1V6.81S237,5.94,237,0ZM57.18,3.31s-.59-1.41.73-1.41V1.41H44.43V1.9c1.33,0,.74,1.41.74,1.41L35.65,27.17c-.71,1.86.77,2,.77,2h9.73v-.69c-2.06,0-1.55-1.08-1.55-1.08l1.47-3.95H56.28l1.46,3.95s.5,1.08-1.54,1.08v.69h9.72s1.48-.17.77-2ZM47.88,18.6l3.28-8.84,3.29,8.84Zm144-15.29s-.59-1.41.74-1.41V1.41H179.09V1.9c1.32,0,.73,1.41.73,1.41l-9.51,23.86c-.71,1.86.77,2,.77,2h9.72v-.69c-2,0-1.54-1.08-1.54-1.08l1.46-3.95h10.21l1.47,3.95s.51,1.08-1.55,1.08v.69h9.73s1.48-.17.77-2ZM182.55,18.6l3.29-8.84,3.28,8.84Z"/><path class="cls-1" d="M45.19,44.71a6,6,0,0,1,1.93.28,3.48,3.48,0,0,1,1.28.76,2.76,2.76,0,0,1,.7,1.13,4.41,4.41,0,0,1,.21,1.37A2.28,2.28,0,0,1,49,49.49a2.41,2.41,0,0,1-1,.84,3.14,3.14,0,0,1,1.31,1,2.45,2.45,0,0,1,.46,1.49,4.51,4.51,0,0,1-.23,1.43,3,3,0,0,1-.74,1.18,3.56,3.56,0,0,1-1.37.79,6.81,6.81,0,0,1-2.12.28H38.29V54.17h1.23V47.05H38.29V44.71Zm.45,3.54a1.15,1.15,0,0,0-.33-.94,1.24,1.24,0,0,0-.78-.26H43.28v2.38h1.25a1.19,1.19,0,0,0,.78-.27A1.1,1.1,0,0,0,45.64,48.25Zm-1.11,5.92a2.07,2.07,0,0,0,1.13-.3,1.43,1.43,0,0,0,0-2.12,2,2,0,0,0-1.13-.31H43.28v2.73Z"/><path class="cls-1" d="M67.41,44.71v3.77H64.79V47.05H62.25v2.38H65v2H62.25v2.73h2.54V52.74h2.62v3.75H57.25V54.17h1.23V47.05H57.25V44.71Z"/><path class="cls-1" d="M87.26,44.71v2.34H86.2l-3.43,9.44H79l-3.44-9.44H74.49V44.71H80.7v2.34H79.61l1.51,4.65,1.58-4.65h-1V44.71Z"/><path class="cls-1" d="M104.83,44.71v3.77h-2.62V47.05H99.66v2.38h2.75v2H99.66v2.73h2.55V52.74h2.62v3.75H94.67V54.17H95.9V47.05H94.67V44.71Z"/><path class="cls-1" d="M124.65,54.17v2.32h-4l-.34-.74c-.11-.22-.24-.49-.38-.8l-.46-1c-.17-.33-.32-.62-.45-.85a2.81,2.81,0,0,0-.37-.57,1.24,1.24,0,0,0-.41-.33,1.34,1.34,0,0,0-.52-.1h-.45v2h1.24v2.32h-6.24V54.17h1.23V47.05h-1.23V44.71h6.24v0h.32a6.79,6.79,0,0,1,2,.27,4.4,4.4,0,0,1,1.45.74,3,3,0,0,1,.87,1.12,3.35,3.35,0,0,1,.3,1.42,2.65,2.65,0,0,1-.52,1.52,3.48,3.48,0,0,1-1.48,1.16,2.27,2.27,0,0,1,1,.8,7.14,7.14,0,0,1,.63,1.27,4,4,0,0,1,.2.5l.24.66Zm-5.05-5.74a1.41,1.41,0,0,0-.33-1.07,1.06,1.06,0,0,0-.78-.31h-1.24v2.74h1.24a1.09,1.09,0,0,0,.78-.3A1.39,1.39,0,0,0,119.6,48.43Z"/><path class="cls-1" d="M143.26,54.17h1.18v2.32h-6.08V54.17h1.13l-.25-.81h-3.07l-.27.81h1.18v2.32h-5.36V54.17h1.05l2.58-7.12h-.72V44.71h5.19Zm-6.38-2.83h1.7l-.84-2.52Z"/><path class="cls-1" d="M162.79,51.41v5.08h-2.12l-.64-.6a4.93,4.93,0,0,1-1.08.5,6.31,6.31,0,0,1-2,.3,6.71,6.71,0,0,1-2.61-.48,5.74,5.74,0,0,1-2-1.3A5.66,5.66,0,0,1,151.14,53a6.53,6.53,0,0,1-.43-2.38,6.86,6.86,0,0,1,.41-2.37,5.83,5.83,0,0,1,1.18-1.93A5.54,5.54,0,0,1,154.16,45a6.07,6.07,0,0,1,2.46-.48,3.45,3.45,0,0,1,.87.11,3.18,3.18,0,0,1,.73.29,3.23,3.23,0,0,1,.58.38,4.48,4.48,0,0,1,.44.37v-.95h2.61V49h-2.61a2.2,2.2,0,0,0-.27-.9,2.13,2.13,0,0,0-.53-.65,1.94,1.94,0,0,0-.7-.39,1.79,1.79,0,0,0-.75-.1,2.32,2.32,0,0,0-.84.25,2,2,0,0,0-.69.64,3.47,3.47,0,0,0-.46,1.11,7.16,7.16,0,0,0-.17,1.67,5.51,5.51,0,0,0,.22,1.66,3.42,3.42,0,0,0,.56,1.08,2.15,2.15,0,0,0,.73.6,2.7,2.7,0,0,0,.76.25,2.77,2.77,0,0,0,1.85-.26v-.7h-.7V51.41Z"/><path class="cls-1" d="M180.47,44.71v3.77h-2.62V47.05h-2.54v2.38h2.74v2h-2.74v2.73h2.54V52.74h2.62v3.75H170.31V54.17h1.23V47.05h-1.23V44.71Z"/><path class="cls-1" d="M195.18,49.32c.34.13.71.28,1.12.47a5.1,5.1,0,0,1,1.15.71,3.8,3.8,0,0,1,.9,1,2.87,2.87,0,0,1,.36,1.48,3.44,3.44,0,0,1-.33,1.53,3.39,3.39,0,0,1-.91,1.15,4.2,4.2,0,0,1-1.43.73,6.27,6.27,0,0,1-1.85.25,8.08,8.08,0,0,1-1.69-.15,6.15,6.15,0,0,1-1.16-.36,3,3,0,0,1-.74-.45,3.3,3.3,0,0,1-.42-.45v1.21h-2.54v-4h2.54a3.36,3.36,0,0,0,.69,1,3.78,3.78,0,0,0,.95.7,3.13,3.13,0,0,0,1.44.31,1.76,1.76,0,0,0,.41-.06,1.83,1.83,0,0,0,.46-.18,1.56,1.56,0,0,0,.38-.28.6.6,0,0,0,.15-.39c0-.33-.21-.58-.63-.76a15.94,15.94,0,0,0-1.73-.59L191,51.93a5.44,5.44,0,0,1-1.46-.65,4,4,0,0,1-1.18-1.13,3.16,3.16,0,0,1-.49-1.85,3.13,3.13,0,0,1,.44-1.67,4.21,4.21,0,0,1,1.08-1.18,4.86,4.86,0,0,1,1.38-.7,4.62,4.62,0,0,1,1.39-.24,4.82,4.82,0,0,1,1.26.16,4.69,4.69,0,0,1,1,.4,3,3,0,0,1,.7.5,3.29,3.29,0,0,1,.45.51V44.71h2.56v3.81H195.5a4.23,4.23,0,0,0-.66-.68,5.12,5.12,0,0,0-.75-.47,2.11,2.11,0,0,0-1-.22,1.78,1.78,0,0,0-.61.09,1,1,0,0,0-.38.2.77.77,0,0,0-.19.23.38.38,0,0,0-.06.17.55.55,0,0,0,.32.47,3.89,3.89,0,0,0,.81.36c.33.11.69.22,1.07.32S194.84,49.2,195.18,49.32Z"/></g></g></svg>